{
	"patcher" : 	{
		"fileversion" : 1,
		"appversion" : 		{
			"major" : 6,
			"minor" : 1,
			"revision" : 8,
			"architecture" : "x86"
		}
,
		"rect" : [ 20.0, 75.0, 1410.0, 742.0 ],
		"bglocked" : 0,
		"openinpresentation" : 0,
		"default_fontsize" : 12.0,
		"default_fontface" : 0,
		"default_fontname" : "Arial",
		"gridonopen" : 0,
		"gridsize" : [ 15.0, 15.0 ],
		"gridsnaponopen" : 0,
		"statusbarvisible" : 2,
		"toolbarvisible" : 1,
		"boxanimatetime" : 200,
		"imprint" : 0,
		"enablehscroll" : 1,
		"enablevscroll" : 1,
		"devicewidth" : 0.0,
		"description" : "",
		"digest" : "",
		"tags" : "",
		"boxes" : [ 			{
				"box" : 				{
					"floatoutput" : 1,
					"id" : "obj-47",
					"maxclass" : "slider",
					"min" : -5.0,
					"numinlets" : 1,
					"numoutlets" : 1,
					"outlettype" : [ "" ],
					"parameter_enable" : 0,
					"patching_rect" : [ 855.0, -8.0, 20.0, 140.0 ],
					"presentation" : 1,
					"presentation_rect" : [ 351.200043, 30.0, 20.0, 140.0 ],
					"size" : 10.0
				}

			}
, 			{
				"box" : 				{
					"floatoutput" : 1,
					"id" : "obj-46",
					"maxclass" : "slider",
					"numinlets" : 1,
					"numoutlets" : 1,
					"outlettype" : [ "" ],
					"parameter_enable" : 0,
					"patching_rect" : [ 855.0, 145.0, 20.0, 140.0 ],
					"presentation" : 1,
					"presentation_rect" : [ 1137.699951, 125.600006, 20.0, 140.0 ],
					"size" : 1.0
				}

			}
, 			{
				"box" : 				{
					"floatoutput" : 1,
					"id" : "obj-45",
					"maxclass" : "slider",
					"numinlets" : 1,
					"numoutlets" : 1,
					"outlettype" : [ "" ],
					"parameter_enable" : 0,
					"patching_rect" : [ 947.399963, 145.0, 20.0, 140.0 ],
					"presentation" : 1,
					"presentation_rect" : [ 1284.099854, 125.600006, 20.0, 140.0 ],
					"size" : 1.0
				}

			}
, 			{
				"box" : 				{
					"floatoutput" : 1,
					"id" : "obj-34",
					"maxclass" : "slider",
					"numinlets" : 1,
					"numoutlets" : 1,
					"outlettype" : [ "" ],
					"parameter_enable" : 0,
					"patching_rect" : [ 911.5, 145.0, 20.0, 140.0 ],
					"presentation" : 1,
					"presentation_rect" : [ 1234.999878, 125.600006, 20.0, 140.0 ],
					"size" : 1.0
				}

			}
, 			{
				"box" : 				{
					"floatoutput" : 1,
					"id" : "obj-42",
					"maxclass" : "slider",
					"numinlets" : 1,
					"numoutlets" : 1,
					"outlettype" : [ "" ],
					"parameter_enable" : 0,
					"patching_rect" : [ 876.5, 145.0, 20.0, 140.0 ],
					"presentation" : 1,
					"presentation_rect" : [ 1185.799927, 125.600006, 20.0, 140.0 ],
					"size" : 1.0
				}

			}
, 			{
				"box" : 				{
					"floatoutput" : 1,
					"id" : "obj-30",
					"maxclass" : "slider",
					"numinlets" : 1,
					"numoutlets" : 1,
					"outlettype" : [ "" ],
					"parameter_enable" : 0,
					"patching_rect" : [ 835.0, 145.0, 20.0, 140.0 ],
					"presentation" : 1,
					"presentation_rect" : [ 1079.199951, 125.600006, 20.0, 140.0 ],
					"size" : 1.0
				}

			}
, 			{
				"box" : 				{
					"floatoutput" : 1,
					"id" : "obj-32",
					"maxclass" : "slider",
					"numinlets" : 1,
					"numoutlets" : 1,
					"outlettype" : [ "" ],
					"parameter_enable" : 0,
					"patching_rect" : [ 800.0, 145.0, 20.0, 140.0 ],
					"presentation" : 1,
					"presentation_rect" : [ 1030.5, 125.600006, 20.0, 140.0 ],
					"size" : 1.0
				}

			}
, 			{
				"box" : 				{
					"id" : "obj-22",
					"maxclass" : "toggle",
					"numinlets" : 1,
					"numoutlets" : 1,
					"outlettype" : [ "int" ],
					"parameter_enable" : 0,
					"patching_rect" : [ 220.399994, 360.0, 20.0, 20.0 ]
				}

			}
, 			{
				"box" : 				{
					"id" : "obj-20",
					"maxclass" : "toggle",
					"numinlets" : 1,
					"numoutlets" : 1,
					"outlettype" : [ "int" ],
					"parameter_enable" : 0,
					"patching_rect" : [ 182.299988, 360.0, 20.0, 20.0 ]
				}

			}
, 			{
				"box" : 				{
					"id" : "obj-9",
					"maxclass" : "toggle",
					"numinlets" : 1,
					"numoutlets" : 1,
					"outlettype" : [ "int" ],
					"parameter_enable" : 0,
					"patching_rect" : [ 143.899994, 360.0, 20.0, 20.0 ]
				}

			}
, 			{
				"box" : 				{
					"fontname" : "Arial",
					"fontsize" : 12.0,
					"frgb" : 0.0,
					"id" : "obj-4",
					"linecount" : 4,
					"maxclass" : "comment",
					"numinlets" : 1,
					"numoutlets" : 0,
					"patching_rect" : [ 1130.799927, 10.999999, 150.0, 60.0 ],
					"presentation" : 1,
					"presentation_linecount" : 4,
					"presentation_rect" : [ 1130.799927, 10.999999, 156.0, 60.0 ],
					"text" : "key shortcuts - space to fullscreen // 1 to toggle brightness high // 2 for con // 3 for sat"
				}

			}
, 			{
				"box" : 				{
					"floatoutput" : 1,
					"id" : "obj-102",
					"maxclass" : "slider",
					"numinlets" : 1,
					"numoutlets" : 1,
					"outlettype" : [ "" ],
					"parameter_enable" : 0,
					"patching_rect" : [ 771.5, 145.0, 20.0, 140.0 ],
					"presentation" : 1,
					"presentation_rect" : [ 972.0, 133.0, 20.0, 140.0 ],
					"size" : 1.0
				}

			}
, 			{
				"box" : 				{
					"floatoutput" : 1,
					"id" : "obj-101",
					"maxclass" : "slider",
					"numinlets" : 1,
					"numoutlets" : 1,
					"outlettype" : [ "" ],
					"parameter_enable" : 0,
					"patching_rect" : [ 736.5, 145.0, 20.0, 140.0 ],
					"presentation" : 1,
					"presentation_rect" : [ 917.799988, 133.0, 20.0, 140.0 ],
					"size" : 1.0
				}

			}
, 			{
				"box" : 				{
					"floatoutput" : 1,
					"id" : "obj-100",
					"maxclass" : "slider",
					"numinlets" : 1,
					"numoutlets" : 1,
					"outlettype" : [ "" ],
					"parameter_enable" : 0,
					"patching_rect" : [ 705.5, 145.0, 20.0, 140.0 ],
					"presentation" : 1,
					"presentation_rect" : [ 877.949951, 133.0, 20.0, 140.0 ],
					"size" : 1.0
				}

			}
, 			{
				"box" : 				{
					"floatoutput" : 1,
					"id" : "obj-99",
					"maxclass" : "slider",
					"numinlets" : 1,
					"numoutlets" : 1,
					"outlettype" : [ "" ],
					"parameter_enable" : 0,
					"patching_rect" : [ 680.5, 145.0, 20.0, 140.0 ],
					"presentation" : 1,
					"presentation_rect" : [ 840.0, 133.0, 20.0, 140.0 ],
					"size" : 1.0
				}

			}
, 			{
				"box" : 				{
					"floatoutput" : 1,
					"id" : "obj-98",
					"maxclass" : "slider",
					"numinlets" : 1,
					"numoutlets" : 1,
					"outlettype" : [ "" ],
					"parameter_enable" : 0,
					"patching_rect" : [ 659.5, 145.0, 20.0, 140.0 ],
					"presentation" : 1,
					"presentation_rect" : [ 811.0, 133.0, 20.0, 140.0 ],
					"size" : 1.0
				}

			}
, 			{
				"box" : 				{
					"floatoutput" : 1,
					"id" : "obj-95",
					"maxclass" : "slider",
					"numinlets" : 1,
					"numoutlets" : 1,
					"outlettype" : [ "" ],
					"parameter_enable" : 0,
					"patching_rect" : [ 629.5, 145.0, 20.0, 140.0 ],
					"presentation" : 1,
					"presentation_rect" : [ 768.5, 133.0, 20.0, 140.0 ],
					"size" : 1.0
				}

			}
, 			{
				"box" : 				{
					"fontname" : "Arial",
					"fontsize" : 12.0,
					"frgb" : 0.0,
					"id" : "obj-94",
					"linecount" : 2,
					"maxclass" : "comment",
					"numinlets" : 1,
					"numoutlets" : 0,
					"patching_rect" : [ 562.5, 296.5, 427.0, 33.0 ],
					"presentation" : 1,
					"presentation_rect" : [ 659.5, 275.0, 713.199951, 20.0 ],
					"text" : "tiles / tile mode / brightnes / con / sat / pixels / zamp_g / zamp_s / delayr_d / delayr_f / delayr_c / feedr_f / feedr_b / feedr_g"
				}

			}
, 			{
				"box" : 				{
					"fontname" : "Arial",
					"fontsize" : 12.0,
					"frgb" : 0.0,
					"id" : "obj-89",
					"linecount" : 3,
					"maxclass" : "comment",
					"numinlets" : 1,
					"numoutlets" : 0,
					"patching_rect" : [ 882.399963, 17.5, 150.0, 47.0 ],
					"presentation" : 1,
					"presentation_linecount" : 3,
					"presentation_rect" : [ 840.0, 41.0, 85.0, 47.0 ],
					"text" : "-> slower\n|\nv faster"
				}

			}
, 			{
				"box" : 				{
					"fontname" : "Arial",
					"fontsize" : 12.0,
					"id" : "obj-87",
					"maxclass" : "flonum",
					"numinlets" : 1,
					"numoutlets" : 2,
					"outlettype" : [ "float", "bang" ],
					"parameter_enable" : 0,
					"patching_rect" : [ 911.5, 72.0, 50.0, 20.0 ],
					"presentation" : 1,
					"presentation_rect" : [ 399.0, 145.0, 50.0, 20.0 ]
				}

			}
, 			{
				"box" : 				{
					"fontname" : "Arial",
					"fontsize" : 12.0,
					"id" : "obj-85",
					"maxclass" : "message",
					"numinlets" : 2,
					"numoutlets" : 1,
					"outlettype" : [ "" ],
					"patching_rect" : [ 915.0, 114.0, 43.0, 18.0 ],
					"text" : "set $1"
				}

			}
, 			{
				"box" : 				{
					"id" : "obj-82",
					"maxclass" : "preset",
					"numinlets" : 1,
					"numoutlets" : 4,
					"outlettype" : [ "preset", "int", "preset", "int" ],
					"patching_rect" : [ 835.0, 238.0, 100.0, 40.0 ],
					"presentation" : 1,
					"presentation_rect" : [ 931.0, 30.0, 102.0, 80.0 ],
					"preset_data" : [ 						{
							"number" : 1,
							"data" : [ 5, "obj-8", "toggle", "int", 0, 5, "obj-37", "flonum", "float", 0.0, 5, "obj-6", "number", "int", 102, 5, "obj-21", "toggle", "int", 0, 5, "obj-69", "flonum", "float", -0.8, 5, "obj-71", "flonum", "float", 0.6, 5, "obj-72", "slider", "float", 1.0, 5, "obj-76", "flonum", "float", 1.05, 5, "obj-77", "slider", "float", 0.0, 5, "obj-79", "number", "int", 2, 5, "obj-87", "flonum", "float", 1.0 ]
						}
, 						{
							"number" : 2,
							"data" : [ 5, "obj-8", "toggle", "int", 0, 5, "obj-37", "flonum", "float", 0.0, 5, "obj-6", "number", "int", 102, 5, "obj-21", "toggle", "int", 0, 5, "obj-69", "flonum", "float", -0.8, 5, "obj-71", "flonum", "float", 0.6, 5, "obj-72", "slider", "float", 1.0, 5, "obj-76", "flonum", "float", 1.05, 5, "obj-77", "slider", "float", 0.0, 5, "obj-79", "number", "int", 2, 5, "obj-87", "flonum", "float", 0.64 ]
						}
, 						{
							"number" : 3,
							"data" : [ 5, "obj-8", "toggle", "int", 0, 5, "obj-37", "flonum", "float", 0.0, 5, "obj-6", "number", "int", 50, 5, "obj-21", "toggle", "int", 0, 5, "obj-69", "flonum", "float", -0.8, 5, "obj-71", "flonum", "float", 0.6, 5, "obj-72", "slider", "float", 1.0, 5, "obj-76", "flonum", "float", 1.05, 5, "obj-77", "slider", "float", 0.0, 5, "obj-79", "number", "int", 2, 5, "obj-87", "flonum", "float", 0.45 ]
						}
, 						{
							"number" : 4,
							"data" : [ 5, "obj-8", "toggle", "int", 0, 5, "obj-37", "flonum", "float", 0.0, 5, "obj-6", "number", "int", 50, 5, "obj-21", "toggle", "int", 0, 5, "obj-69", "flonum", "float", -0.8, 5, "obj-71", "flonum", "float", 0.6, 5, "obj-72", "slider", "float", 1.0, 5, "obj-76", "flonum", "float", 1.05, 5, "obj-77", "slider", "float", 0.0, 5, "obj-79", "number", "int", 2, 5, "obj-87", "flonum", "float", 0.28 ]
						}
, 						{
							"number" : 5,
							"data" : [ 5, "obj-8", "toggle", "int", 0, 5, "obj-37", "flonum", "float", 0.0, 5, "obj-6", "number", "int", 110, 5, "obj-21", "toggle", "int", 0, 5, "obj-69", "flonum", "float", -0.8, 5, "obj-71", "flonum", "float", 0.6, 5, "obj-72", "slider", "float", 1.0, 5, "obj-76", "flonum", "float", 1.05, 5, "obj-77", "slider", "float", 0.0, 5, "obj-79", "number", "int", 2, 5, "obj-87", "flonum", "float", 0.03 ]
						}
, 						{
							"number" : 9,
							"data" : [ 5, "obj-8", "toggle", "int", 0, 5, "obj-37", "flonum", "float", 0.0, 5, "obj-6", "number", "int", 102, 5, "obj-21", "toggle", "int", 0, 5, "obj-69", "flonum", "float", -0.8, 5, "obj-71", "flonum", "float", 0.6, 5, "obj-72", "slider", "float", 1.0, 5, "obj-76", "flonum", "float", 1.05, 5, "obj-77", "slider", "float", 0.0, 5, "obj-79", "number", "int", 2, 5, "obj-87", "flonum", "float", 1.5 ]
						}
, 						{
							"number" : 10,
							"data" : [ 5, "obj-8", "toggle", "int", 0, 5, "obj-37", "flonum", "float", 0.0, 5, "obj-6", "number", "int", 102, 5, "obj-21", "toggle", "int", 0, 5, "obj-69", "flonum", "float", -0.8, 5, "obj-71", "flonum", "float", 0.6, 5, "obj-72", "slider", "float", 0.453846, 5, "obj-76", "flonum", "float", 0.503846, 5, "obj-77", "slider", "float", 0.0, 5, "obj-79", "number", "int", 2, 5, "obj-87", "flonum", "float", 0.64 ]
						}
, 						{
							"number" : 15,
							"data" : [ 5, "obj-8", "toggle", "int", 0, 5, "obj-37", "flonum", "float", 0.0, 5, "obj-6", "number", "int", 110, 5, "obj-21", "toggle", "int", 0, 5, "obj-69", "flonum", "float", -0.8, 5, "obj-71", "flonum", "float", 0.6, 5, "obj-72", "slider", "float", 1.0, 5, "obj-76", "flonum", "float", 1.05, 5, "obj-77", "slider", "float", 0.0, 5, "obj-79", "number", "int", 2, 5, "obj-87", "flonum", "float", -0.99 ]
						}
, 						{
							"number" : 16,
							"data" : [ 5, "obj-8", "toggle", "int", 0, 5, "obj-37", "flonum", "float", 0.0, 5, "obj-6", "number", "int", 110, 5, "obj-21", "toggle", "int", 0, 5, "obj-69", "flonum", "float", -0.8, 5, "obj-71", "flonum", "float", 0.6, 5, "obj-72", "slider", "float", 0.792308, 5, "obj-76", "flonum", "float", 0.842308, 5, "obj-77", "slider", "float", 2.0, 5, "obj-79", "number", "int", 4, 5, "obj-87", "flonum", "float", -0.72 ]
						}
, 						{
							"number" : 17,
							"data" : [ 5, "obj-8", "toggle", "int", 0, 5, "obj-37", "flonum", "float", 0.0, 5, "obj-6", "number", "int", 102, 5, "obj-21", "toggle", "int", 0, 5, "obj-69", "flonum", "float", -0.8, 5, "obj-71", "flonum", "float", 0.6, 5, "obj-72", "slider", "float", 1.0, 5, "obj-76", "flonum", "float", 1.05, 5, "obj-77", "slider", "float", 0.0, 5, "obj-79", "number", "int", 2, 5, "obj-87", "flonum", "float", 2.0 ]
						}
, 						{
							"number" : 19,
							"data" : [ 5, "obj-8", "toggle", "int", 0, 5, "obj-37", "flonum", "float", 0.0, 5, "obj-6", "number", "int", 102, 5, "obj-21", "toggle", "int", 0, 5, "obj-69", "flonum", "float", -0.8, 5, "obj-71", "flonum", "float", 0.6, 5, "obj-72", "slider", "float", 0.276923, 5, "obj-76", "flonum", "float", 0.326923, 5, "obj-77", "slider", "float", 0.0, 5, "obj-79", "number", "int", 2, 5, "obj-87", "flonum", "float", 0.5 ]
						}
, 						{
							"number" : 23,
							"data" : [ 5, "obj-8", "toggle", "int", 0, 5, "obj-37", "flonum", "float", 0.0, 5, "obj-6", "number", "int", 110, 5, "obj-21", "toggle", "int", 0, 5, "obj-69", "flonum", "float", -0.8, 5, "obj-71", "flonum", "float", 0.6, 5, "obj-72", "slider", "float", 0.330769, 5, "obj-76", "flonum", "float", 0.380769, 5, "obj-77", "slider", "float", 0.0, 5, "obj-79", "number", "int", 2, 5, "obj-87", "flonum", "float", -0.99 ]
						}
, 						{
							"number" : 24,
							"data" : [ 5, "obj-8", "toggle", "int", 0, 5, "obj-37", "flonum", "float", 0.0, 5, "obj-6", "number", "int", 110, 5, "obj-21", "toggle", "int", 0, 5, "obj-69", "flonum", "float", -0.8, 5, "obj-71", "flonum", "float", 0.6, 5, "obj-72", "slider", "float", 0.469231, 5, "obj-76", "flonum", "float", 0.519231, 5, "obj-77", "slider", "float", 2.0, 5, "obj-79", "number", "int", 4, 5, "obj-87", "flonum", "float", -0.4 ]
						}
, 						{
							"number" : 25,
							"data" : [ 5, "obj-8", "toggle", "int", 0, 5, "obj-37", "flonum", "float", 0.0, 5, "obj-6", "number", "int", 102, 5, "obj-21", "toggle", "int", 0, 5, "obj-69", "flonum", "float", -0.8, 5, "obj-71", "flonum", "float", 0.6, 5, "obj-72", "slider", "float", 1.0, 5, "obj-76", "flonum", "float", 1.05, 5, "obj-77", "slider", "float", 0.0, 5, "obj-79", "number", "int", 2, 5, "obj-87", "flonum", "float", 3.0 ]
						}
, 						{
							"number" : 28,
							"data" : [ 5, "obj-8", "toggle", "int", 0, 5, "obj-37", "flonum", "float", 0.0, 5, "obj-6", "number", "int", 102, 5, "obj-21", "toggle", "int", 0, 5, "obj-69", "flonum", "float", -0.8, 5, "obj-71", "flonum", "float", 0.6, 5, "obj-72", "slider", "float", 0.715385, 5, "obj-76", "flonum", "float", 0.765385, 5, "obj-77", "slider", "float", 1.0, 5, "obj-79", "number", "int", 3, 5, "obj-87", "flonum", "float", 0.7 ]
						}
, 						{
							"number" : 31,
							"data" : [ 5, "obj-8", "toggle", "int", 0, 5, "obj-37", "flonum", "float", 0.0, 5, "obj-6", "number", "int", 110, 5, "obj-21", "toggle", "int", 0, 5, "obj-69", "flonum", "float", -0.8, 5, "obj-71", "flonum", "float", 0.6, 5, "obj-72", "slider", "float", 0.746154, 5, "obj-76", "flonum", "float", 0.796154, 5, "obj-77", "slider", "float", 0.0, 5, "obj-79", "number", "int", 2, 5, "obj-87", "flonum", "float", -1.6 ]
						}
, 						{
							"number" : 33,
							"data" : [ 5, "obj-8", "toggle", "int", 0, 5, "obj-37", "flonum", "float", 0.0, 5, "obj-6", "number", "int", 13, 5, "obj-21", "toggle", "int", 0, 5, "obj-69", "flonum", "float", -0.8, 5, "obj-71", "flonum", "float", 0.6, 5, "obj-72", "slider", "float", 1.0, 5, "obj-76", "flonum", "float", 1.05, 5, "obj-77", "slider", "float", 0.0, 5, "obj-79", "number", "int", 2, 5, "obj-87", "flonum", "float", 4.0 ]
						}
, 						{
							"number" : 37,
							"data" : [ 5, "obj-8", "toggle", "int", 0, 5, "obj-37", "flonum", "float", 0.0, 5, "obj-6", "number", "int", 102, 5, "obj-21", "toggle", "int", 0, 5, "obj-69", "flonum", "float", -0.8, 5, "obj-71", "flonum", "float", 0.6, 5, "obj-72", "slider", "float", 0.0, 5, "obj-76", "flonum", "float", 0.05, 5, "obj-77", "slider", "float", 2.0, 5, "obj-79", "number", "int", 4, 5, "obj-87", "flonum", "float", 1.153 ]
						}
, 						{
							"number" : 46,
							"data" : [ 5, "obj-8", "toggle", "int", 0, 5, "obj-37", "flonum", "float", 0.0, 5, "obj-6", "number", "int", 102, 5, "obj-21", "toggle", "int", 0, 5, "obj-69", "flonum", "float", -0.8, 5, "obj-71", "flonum", "float", 0.6, 5, "obj-72", "slider", "float", 0.515385, 5, "obj-76", "flonum", "float", 0.565385, 5, "obj-77", "slider", "float", 0.0, 5, "obj-79", "number", "int", 2, 5, "obj-87", "flonum", "float", 1.0 ]
						}
, 						{
							"number" : 48,
							"data" : [ 5, "obj-8", "toggle", "int", 0, 5, "obj-37", "flonum", "float", 0.0, 5, "obj-6", "number", "int", 110, 5, "obj-21", "toggle", "int", 0, 5, "obj-69", "flonum", "float", -0.8, 5, "obj-71", "flonum", "float", 0.6, 5, "obj-72", "slider", "float", 0.469231, 5, "obj-76", "flonum", "float", 0.519231, 5, "obj-77", "slider", "float", 2.0, 5, "obj-79", "number", "int", 4, 5, "obj-87", "flonum", "float", 0.89 ]
						}
 ]
				}

			}
, 			{
				"box" : 				{
					"fontname" : "Arial",
					"fontsize" : 12.0,
					"frgb" : 0.0,
					"id" : "obj-81",
					"maxclass" : "comment",
					"numinlets" : 1,
					"numoutlets" : 0,
					"patching_rect" : [ 359.5, 662.0, 90.0, 20.0 ],
					"presentation" : 1,
					"presentation_rect" : [ 100.5, 521.0, 90.0, 20.0 ],
					"text" : "last is nothing"
				}

			}
, 			{
				"box" : 				{
					"fontname" : "Arial",
					"fontsize" : 12.0,
					"id" : "obj-79",
					"maxclass" : "number",
					"numinlets" : 1,
					"numoutlets" : 2,
					"outlettype" : [ "int", "bang" ],
					"parameter_enable" : 0,
					"patching_rect" : [ 444.0, 258.0, 50.0, 20.0 ],
					"presentation" : 1,
					"presentation_rect" : [ 545.0, 246.0, 50.0, 20.0 ]
				}

			}
, 			{
				"box" : 				{
					"id" : "obj-77",
					"maxclass" : "slider",
					"min" : 2.0,
					"numinlets" : 1,
					"numoutlets" : 1,
					"outlettype" : [ "" ],
					"parameter_enable" : 0,
					"patching_rect" : [ 593.0, 145.0, 20.0, 140.0 ],
					"presentation" : 1,
					"presentation_rect" : [ 706.700012, 133.0, 20.0, 140.0 ],
					"size" : 3.0
				}

			}
, 			{
				"box" : 				{
					"fontname" : "Arial",
					"fontsize" : 12.0,
					"id" : "obj-76",
					"maxclass" : "flonum",
					"numinlets" : 1,
					"numoutlets" : 2,
					"outlettype" : [ "float", "bang" ],
					"parameter_enable" : 0,
					"patching_rect" : [ 427.0, 179.0, 50.0, 20.0 ],
					"presentation" : 1,
					"presentation_rect" : [ 528.0, 170.300003, 50.0, 20.0 ]
				}

			}
, 			{
				"box" : 				{
					"floatoutput" : 1,
					"id" : "obj-72",
					"maxclass" : "slider",
					"min" : 0.05,
					"numinlets" : 1,
					"numoutlets" : 1,
					"outlettype" : [ "" ],
					"parameter_enable" : 0,
					"patching_rect" : [ 564.5, 145.0, 20.0, 140.0 ],
					"presentation" : 1,
					"presentation_rect" : [ 659.5, 133.0, 20.0, 140.0 ],
					"size" : 1.0
				}

			}
, 			{
				"box" : 				{
					"fontname" : "Arial",
					"fontsize" : 12.0,
					"id" : "obj-71",
					"maxclass" : "flonum",
					"numinlets" : 1,
					"numoutlets" : 2,
					"outlettype" : [ "float", "bang" ],
					"parameter_enable" : 0,
					"patching_rect" : [ 490.0, 199.0, 50.0, 20.0 ],
					"presentation" : 1,
					"presentation_rect" : [ 591.0, 187.0, 50.0, 20.0 ]
				}

			}
, 			{
				"box" : 				{
					"fontname" : "Arial",
					"fontsize" : 12.0,
					"id" : "obj-69",
					"maxclass" : "flonum",
					"numinlets" : 1,
					"numoutlets" : 2,
					"outlettype" : [ "float", "bang" ],
					"parameter_enable" : 0,
					"patching_rect" : [ 370.0, 191.0, 50.0, 20.0 ],
					"presentation" : 1,
					"presentation_rect" : [ 471.0, 179.0, 50.0, 20.0 ]
				}

			}
, 			{
				"box" : 				{
					"fontname" : "Arial",
					"fontsize" : 12.0,
					"id" : "obj-57",
					"maxclass" : "message",
					"numinlets" : 2,
					"numoutlets" : 1,
					"outlettype" : [ "" ],
					"patching_rect" : [ 427.0, 287.0, 91.0, 18.0 ],
					"presentation" : 1,
					"presentation_rect" : [ 528.0, 275.0, 91.0, 18.0 ],
					"text" : "boundmode $1"
				}

			}
, 			{
				"box" : 				{
					"fontname" : "Arial",
					"fontsize" : 12.0,
					"id" : "obj-55",
					"maxclass" : "message",
					"numinlets" : 2,
					"numoutlets" : 1,
					"outlettype" : [ "" ],
					"patching_rect" : [ 427.0, 228.0, 69.0, 18.0 ],
					"presentation" : 1,
					"presentation_rect" : [ 528.0, 216.0, 69.0, 18.0 ],
					"text" : "zoom_y $1"
				}

			}
, 			{
				"box" : 				{
					"fontname" : "Arial",
					"fontsize" : 12.0,
					"id" : "obj-53",
					"maxclass" : "message",
					"numinlets" : 2,
					"numoutlets" : 1,
					"outlettype" : [ "" ],
					"patching_rect" : [ 340.5, 228.0, 69.0, 18.0 ],
					"presentation" : 1,
					"presentation_rect" : [ 441.5, 216.0, 69.0, 18.0 ],
					"text" : "zoom_x $1"
				}

			}
, 			{
				"box" : 				{
					"fontname" : "Arial",
					"fontsize" : 12.0,
					"id" : "obj-51",
					"maxclass" : "newobj",
					"numinlets" : 1,
					"numoutlets" : 2,
					"outlettype" : [ "jit_matrix", "" ],
					"patching_rect" : [ 301.0, 317.0, 43.0, 20.0 ],
					"text" : "jit.rota"
				}

			}
, 			{
				"box" : 				{
					"bgmode" : 1,
					"id" : "obj-48",
					"maxclass" : "bpatcher",
					"name" : "vz.zamplr.maxpat",
					"numinlets" : 6,
					"numoutlets" : 1,
					"outlettype" : [ "jit_matrix" ],
					"patching_rect" : [ 719.5, 554.0, 270.0, 154.0 ],
					"presentation" : 1,
					"presentation_rect" : [ 380.0, 554.0, 270.0, 154.0 ],
					"prototypename" : "pixl",
					"varname" : "vz.zamplr"
				}

			}
, 			{
				"box" : 				{
					"bgmode" : 1,
					"id" : "obj-41",
					"maxclass" : "bpatcher",
					"name" : "vz.feedr.maxpat",
					"numinlets" : 4,
					"numoutlets" : 1,
					"outlettype" : [ "jit_matrix" ],
					"patching_rect" : [ 450.5, 581.0, 250.0, 154.0 ],
					"presentation" : 1,
					"presentation_rect" : [ 35.5, 554.0, 250.0, 154.0 ],
					"prototypename" : "pixl",
					"varname" : "vz.feedr"
				}

			}
, 			{
				"box" : 				{
					"fontname" : "Arial",
					"fontsize" : 12.0,
					"frgb" : 0.0,
					"id" : "obj-40",
					"linecount" : 2,
					"maxclass" : "comment",
					"numinlets" : 1,
					"numoutlets" : 0,
					"patching_rect" : [ 485.0, 538.0, 150.0, 33.0 ],
					"presentation" : 1,
					"presentation_linecount" : 2,
					"presentation_rect" : [ 70.5, 466.0, 150.0, 33.0 ],
					"text" : "preset 3 is incredible 1 is also good / 5 is nothing"
				}

			}
, 			{
				"box" : 				{
					"bgmode" : 1,
					"id" : "obj-1",
					"maxclass" : "bpatcher",
					"name" : "vz.delayr.maxpat",
					"numinlets" : 4,
					"numoutlets" : 1,
					"outlettype" : [ "jit_matrix" ],
					"patching_rect" : [ 450.5, 360.0, 250.0, 154.0 ],
					"presentation" : 1,
					"presentation_rect" : [ 35.5, 303.0, 250.0, 154.0 ],
					"prototypename" : "pixl",
					"varname" : "vz.delayr"
				}

			}
, 			{
				"box" : 				{
					"fontname" : "Arial",
					"fontsize" : 12.0,
					"frgb" : 0.0,
					"id" : "obj-31",
					"maxclass" : "comment",
					"numinlets" : 1,
					"numoutlets" : 0,
					"patching_rect" : [ 779.5, 520.0, 150.0, 20.0 ],
					"presentation" : 1,
					"presentation_rect" : [ 499.5, 500.0, 150.0, 20.0 ],
					"text" : "1 - nothing\n"
				}

			}
, 			{
				"box" : 				{
					"fontname" : "Arial",
					"fontsize" : 12.0,
					"frgb" : 0.0,
					"id" : "obj-28",
					"linecount" : 5,
					"maxclass" : "comment",
					"numinlets" : 1,
					"numoutlets" : 0,
					"patching_rect" : [ 1034.0, 34.0, 103.0, 74.0 ],
					"presentation" : 1,
					"presentation_linecount" : 5,
					"presentation_rect" : [ 989.0, 642.0, 103.0, 74.0 ],
					"text" : "1 - nothing\n2- 1 pixel\n3 - vertical\n4- horizontal\n5- middle both"
				}

			}
, 			{
				"box" : 				{
					"bgmode" : 1,
					"id" : "obj-35",
					"maxclass" : "bpatcher",
					"name" : "vz.brcosr.maxpat",
					"numinlets" : 7,
					"numoutlets" : 1,
					"outlettype" : [ "jit_matrix" ],
					"patching_rect" : [ 719.5, 360.0, 270.0, 154.0 ],
					"presentation" : 1,
					"presentation_rect" : [ 380.0, 315.0, 270.0, 154.0 ],
					"prototypename" : "pixl",
					"varname" : "vz.brcosr"
				}

			}
, 			{
				"box" : 				{
					"bgmode" : 1,
					"id" : "obj-26",
					"maxclass" : "bpatcher",
					"name" : "vz.4mixr.maxpat",
					"numinlets" : 9,
					"numoutlets" : 1,
					"outlettype" : [ "jit_matrix" ],
					"patching_rect" : [ 5.5, 5.0, 280.0, 154.0 ],
					"presentation" : 1,
					"presentation_rect" : [ 45.5, 61.0, 280.0, 154.0 ],
					"prototypename" : "pixl",
					"varname" : "vz.4mixr"
				}

			}
, 			{
				"box" : 				{
					"bgmode" : 1,
					"id" : "obj-33",
					"maxclass" : "bpatcher",
					"name" : "vz.2toner.maxpat",
					"numinlets" : 7,
					"numoutlets" : 1,
					"outlettype" : [ "jit_matrix" ],
					"patching_rect" : [ 1127.0, 191.0, 260.0, 154.0 ],
					"presentation" : 1,
					"presentation_rect" : [ 739.0, 315.0, 260.0, 154.0 ],
					"prototypename" : "pixl",
					"varname" : "vz.2toner"
				}

			}
, 			{
				"box" : 				{
					"bgmode" : 1,
					"id" : "obj-7",
					"maxclass" : "bpatcher",
					"name" : "vz.pixl8r.maxpat",
					"numinlets" : 3,
					"numoutlets" : 1,
					"outlettype" : [ "jit_matrix" ],
					"patching_rect" : [ 1143.0, 5.0, 250.0, 154.0 ],
					"presentation" : 1,
					"presentation_rect" : [ 739.0, 554.0, 250.0, 154.0 ],
					"prototypename" : "pixl",
					"varname" : "vz.pixl8r"
				}

			}
, 			{
				"box" : 				{
					"id" : "obj-21",
					"maxclass" : "toggle",
					"numinlets" : 1,
					"numoutlets" : 1,
					"outlettype" : [ "int" ],
					"parameter_enable" : 0,
					"patching_rect" : [ 64.0, 341.0, 20.0, 20.0 ]
				}

			}
, 			{
				"box" : 				{
					"fontname" : "Arial",
					"fontsize" : 12.0,
					"id" : "obj-15",
					"maxclass" : "newobj",
					"numinlets" : 5,
					"numoutlets" : 5,
					"outlettype" : [ "bang", "bang", "bang", "bang", "" ],
					"patching_rect" : [ 116.0, 324.0, 109.0, 20.0 ],
					"text" : "select 32 49 50 51"
				}

			}
, 			{
				"box" : 				{
					"fontname" : "Arial",
					"fontsize" : 12.0,
					"id" : "obj-6",
					"maxclass" : "number",
					"numinlets" : 1,
					"numoutlets" : 2,
					"outlettype" : [ "int", "bang" ],
					"parameter_enable" : 0,
					"patching_rect" : [ 49.0, 310.0, 50.0, 20.0 ]
				}

			}
, 			{
				"box" : 				{
					"fontname" : "Arial",
					"fontsize" : 12.0,
					"id" : "obj-3",
					"maxclass" : "newobj",
					"numinlets" : 0,
					"numoutlets" : 4,
					"outlettype" : [ "int", "int", "int", "int" ],
					"patching_rect" : [ 84.5, 268.0, 59.5, 20.0 ],
					"text" : "key"
				}

			}
, 			{
				"box" : 				{
					"bgmode" : 1,
					"id" : "obj-23",
					"maxclass" : "bpatcher",
					"name" : "vz.scribblr.maxpat",
					"numinlets" : 9,
					"numoutlets" : 1,
					"outlettype" : [ "jit_matrix" ],
					"patching_rect" : [ 997.0, 360.0, 390.0, 232.0 ],
					"presentation" : 1,
					"presentation_rect" : [ 1009.0, 384.0, 390.0, 232.0 ],
					"prototypename" : "pixl",
					"varname" : "vz.scribblr"
				}

			}
, 			{
				"box" : 				{
					"attr" : "vol",
					"displaymode" : 2,
					"fontname" : "Arial",
					"fontsize" : 13.0,
					"id" : "obj-39",
					"lock" : 1,
					"maxclass" : "attrui",
					"numinlets" : 1,
					"numoutlets" : 1,
					"outlettype" : [ "" ],
					"patching_rect" : [ 725.5, 179.0, 95.0, 21.0 ],
					"text_width" : 47.0
				}

			}
, 			{
				"box" : 				{
					"id" : "obj-38",
					"maxclass" : "playbar",
					"numinlets" : 1,
					"numoutlets" : 2,
					"outlettype" : [ "", "int" ],
					"patching_rect" : [ 659.5, 61.0, 161.0, 20.0 ],
					"presentation" : 1,
					"presentation_rect" : [ 659.5, 61.0, 161.0, 20.0 ]
				}

			}
, 			{
				"box" : 				{
					"fontname" : "Arial",
					"fontsize" : 13.0,
					"id" : "obj-37",
					"maxclass" : "flonum",
					"numinlets" : 1,
					"numoutlets" : 2,
					"outlettype" : [ "float", "bang" ],
					"parameter_enable" : 0,
					"patching_rect" : [ 411.5, 61.0, 50.0, 21.0 ]
				}

			}
, 			{
				"box" : 				{
					"attr" : "loop",
					"fontname" : "Arial",
					"fontsize" : 13.0,
					"id" : "obj-18",
					"lock" : 1,
					"maxclass" : "attrui",
					"numinlets" : 1,
					"numoutlets" : 1,
					"outlettype" : [ "" ],
					"patching_rect" : [ 725.5, 138.0, 95.0, 21.0 ],
					"text_width" : 47.0
				}

			}
, 			{
				"box" : 				{
					"fontname" : "Arial",
					"fontsize" : 13.0,
					"id" : "obj-13",
					"maxclass" : "message",
					"numinlets" : 2,
					"numoutlets" : 1,
					"outlettype" : [ "" ],
					"patching_rect" : [ 609.5, 61.0, 40.0, 19.0 ],
					"presentation" : 1,
					"presentation_rect" : [ 609.5, 61.0, 40.0, 19.0 ],
					"text" : "clear"
				}

			}
, 			{
				"box" : 				{
					"fontname" : "Arial",
					"fontsize" : 13.0,
					"id" : "obj-12",
					"maxclass" : "message",
					"numinlets" : 2,
					"numoutlets" : 1,
					"outlettype" : [ "" ],
					"patching_rect" : [ 564.5, 61.0, 36.0, 19.0 ],
					"presentation" : 1,
					"presentation_rect" : [ 564.5, 61.0, 36.0, 19.0 ],
					"text" : "stop"
				}

			}
, 			{
				"box" : 				{
					"fontname" : "Arial",
					"fontsize" : 13.0,
					"id" : "obj-11",
					"maxclass" : "message",
					"numinlets" : 2,
					"numoutlets" : 1,
					"outlettype" : [ "" ],
					"patching_rect" : [ 516.0, 61.0, 37.0, 19.0 ],
					"presentation" : 1,
					"presentation_rect" : [ 516.0, 61.0, 37.0, 19.0 ],
					"text" : "start"
				}

			}
, 			{
				"box" : 				{
					"fontname" : "Arial",
					"fontsize" : 13.0,
					"id" : "obj-10",
					"maxclass" : "message",
					"numinlets" : 2,
					"numoutlets" : 1,
					"outlettype" : [ "" ],
					"patching_rect" : [ 469.5, 61.0, 37.0, 19.0 ],
					"presentation" : 1,
					"presentation_rect" : [ 469.5, 61.0, 37.0, 19.0 ],
					"text" : "read"
				}

			}
, 			{
				"box" : 				{
					"id" : "obj-8",
					"maxclass" : "toggle",
					"numinlets" : 1,
					"numoutlets" : 1,
					"outlettype" : [ "int" ],
					"parameter_enable" : 0,
					"patching_rect" : [ 359.5, 61.0, 20.0, 20.0 ]
				}

			}
, 			{
				"box" : 				{
					"fontname" : "Arial",
					"fontsize" : 13.0,
					"id" : "obj-36",
					"maxclass" : "newobj",
					"numinlets" : 2,
					"numoutlets" : 1,
					"outlettype" : [ "bang" ],
					"patching_rect" : [ 359.5, 88.5, 71.0, 21.0 ],
					"text" : "qmetro 30"
				}

			}
, 			{
				"box" : 				{
					"fontname" : "Arial",
					"fontsize" : 13.0,
					"id" : "obj-5",
					"maxclass" : "newobj",
					"numinlets" : 1,
					"numoutlets" : 2,
					"outlettype" : [ "jit_matrix", "" ],
					"patching_rect" : [ 285.5, 145.0, 74.0, 21.0 ],
					"text" : "jit.qt.movie"
				}

			}
, 			{
				"box" : 				{
					"attr" : "rate",
					"fontname" : "Arial",
					"fontsize" : 13.0,
					"id" : "obj-16",
					"lock" : 1,
					"maxclass" : "attrui",
					"numinlets" : 1,
					"numoutlets" : 1,
					"outlettype" : [ "" ],
					"patching_rect" : [ 924.5, 153.5, 125.0, 21.0 ],
					"presentation" : 1,
					"presentation_rect" : [ 332.0, 178.0, 125.0, 21.0 ],
					"text_width" : 47.0
				}

			}
, 			{
				"box" : 				{
					"bgmode" : 1,
					"id" : "obj-19",
					"maxclass" : "bpatcher",
					"name" : "vz.viewr.maxpat",
					"numinlets" : 2,
					"numoutlets" : 0,
					"patching_rect" : [ 19.0, 406.0, 280.0, 140.0 ],
					"prototypename" : "pixl"
				}

			}
 ],
		"lines" : [ 			{
				"patchline" : 				{
					"destination" : [ "obj-41", 0 ],
					"disabled" : 0,
					"hidden" : 0,
					"source" : [ "obj-1", 0 ]
				}

			}
, 			{
				"patchline" : 				{
					"destination" : [ "obj-5", 0 ],
					"disabled" : 0,
					"hidden" : 0,
					"source" : [ "obj-10", 0 ]
				}

			}
, 			{
				"patchline" : 				{
					"destination" : [ "obj-7", 2 ],
					"disabled" : 0,
					"hidden" : 0,
					"source" : [ "obj-100", 0 ]
				}

			}
, 			{
				"patchline" : 				{
					"destination" : [ "obj-7", 1 ],
					"disabled" : 0,
					"hidden" : 0,
					"source" : [ "obj-100", 0 ]
				}

			}
, 			{
				"patchline" : 				{
					"destination" : [ "obj-48", 3 ],
					"disabled" : 0,
					"hidden" : 0,
					"source" : [ "obj-101", 0 ]
				}

			}
, 			{
				"patchline" : 				{
					"destination" : [ "obj-48", 2 ],
					"disabled" : 0,
					"hidden" : 0,
					"source" : [ "obj-102", 0 ]
				}

			}
, 			{
				"patchline" : 				{
					"destination" : [ "obj-48", 1 ],
					"disabled" : 0,
					"hidden" : 0,
					"source" : [ "obj-102", 0 ]
				}

			}
, 			{
				"patchline" : 				{
					"destination" : [ "obj-5", 0 ],
					"disabled" : 0,
					"hidden" : 0,
					"source" : [ "obj-11", 0 ]
				}

			}
, 			{
				"patchline" : 				{
					"destination" : [ "obj-5", 0 ],
					"disabled" : 0,
					"hidden" : 0,
					"source" : [ "obj-12", 0 ]
				}

			}
, 			{
				"patchline" : 				{
					"destination" : [ "obj-5", 0 ],
					"disabled" : 0,
					"hidden" : 0,
					"source" : [ "obj-13", 0 ]
				}

			}
, 			{
				"patchline" : 				{
					"destination" : [ "obj-20", 0 ],
					"disabled" : 0,
					"hidden" : 0,
					"source" : [ "obj-15", 2 ]
				}

			}
, 			{
				"patchline" : 				{
					"destination" : [ "obj-21", 0 ],
					"disabled" : 0,
					"hidden" : 0,
					"source" : [ "obj-15", 0 ]
				}

			}
, 			{
				"patchline" : 				{
					"destination" : [ "obj-22", 0 ],
					"disabled" : 0,
					"hidden" : 0,
					"source" : [ "obj-15", 3 ]
				}

			}
, 			{
				"patchline" : 				{
					"destination" : [ "obj-9", 0 ],
					"disabled" : 0,
					"hidden" : 0,
					"source" : [ "obj-15", 1 ]
				}

			}
, 			{
				"patchline" : 				{
					"destination" : [ "obj-5", 0 ],
					"disabled" : 0,
					"hidden" : 0,
					"source" : [ "obj-16", 0 ]
				}

			}
, 			{
				"patchline" : 				{
					"destination" : [ "obj-5", 0 ],
					"disabled" : 0,
					"hidden" : 0,
					"midpoints" : [ 735.0, 164.0, 713.5, 164.0, 713.5, 141.0, 295.0, 141.0 ],
					"source" : [ "obj-18", 0 ]
				}

			}
, 			{
				"patchline" : 				{
					"destination" : [ "obj-35", 5 ],
					"disabled" : 0,
					"hidden" : 0,
					"source" : [ "obj-20", 0 ]
				}

			}
, 			{
				"patchline" : 				{
					"destination" : [ "obj-19", 1 ],
					"disabled" : 0,
					"hidden" : 0,
					"source" : [ "obj-21", 0 ]
				}

			}
, 			{
				"patchline" : 				{
					"destination" : [ "obj-35", 6 ],
					"disabled" : 0,
					"hidden" : 0,
					"source" : [ "obj-22", 0 ]
				}

			}
, 			{
				"patchline" : 				{
					"destination" : [ "obj-26", 3 ],
					"disabled" : 0,
					"hidden" : 0,
					"source" : [ "obj-23", 0 ]
				}

			}
, 			{
				"patchline" : 				{
					"destination" : [ "obj-19", 0 ],
					"disabled" : 0,
					"hidden" : 0,
					"source" : [ "obj-26", 0 ]
				}

			}
, 			{
				"patchline" : 				{
					"destination" : [ "obj-15", 0 ],
					"disabled" : 0,
					"hidden" : 0,
					"source" : [ "obj-3", 0 ]
				}

			}
, 			{
				"patchline" : 				{
					"destination" : [ "obj-6", 0 ],
					"disabled" : 0,
					"hidden" : 0,
					"source" : [ "obj-3", 0 ]
				}

			}
, 			{
				"patchline" : 				{
					"destination" : [ "obj-1", 2 ],
					"disabled" : 0,
					"hidden" : 0,
					"source" : [ "obj-30", 0 ]
				}

			}
, 			{
				"patchline" : 				{
					"destination" : [ "obj-1", 1 ],
					"disabled" : 0,
					"hidden" : 0,
					"source" : [ "obj-32", 0 ]
				}

			}
, 			{
				"patchline" : 				{
					"destination" : [ "obj-35", 0 ],
					"disabled" : 0,
					"hidden" : 0,
					"source" : [ "obj-33", 0 ]
				}

			}
, 			{
				"patchline" : 				{
					"destination" : [ "obj-41", 2 ],
					"disabled" : 0,
					"hidden" : 0,
					"source" : [ "obj-34", 0 ]
				}

			}
, 			{
				"patchline" : 				{
					"destination" : [ "obj-1", 0 ],
					"disabled" : 0,
					"hidden" : 0,
					"midpoints" : [ 729.0, 525.0, 444.0, 525.0, 444.0, 357.0, 460.0, 357.0 ],
					"source" : [ "obj-35", 0 ]
				}

			}
, 			{
				"patchline" : 				{
					"destination" : [ "obj-5", 0 ],
					"disabled" : 0,
					"hidden" : 0,
					"source" : [ "obj-36", 0 ]
				}

			}
, 			{
				"patchline" : 				{
					"destination" : [ "obj-36", 1 ],
					"disabled" : 0,
					"hidden" : 0,
					"source" : [ "obj-37", 0 ]
				}

			}
, 			{
				"patchline" : 				{
					"destination" : [ "obj-5", 0 ],
					"disabled" : 0,
					"hidden" : 0,
					"source" : [ "obj-38", 0 ]
				}

			}
, 			{
				"patchline" : 				{
					"destination" : [ "obj-5", 0 ],
					"disabled" : 0,
					"hidden" : 0,
					"source" : [ "obj-39", 0 ]
				}

			}
, 			{
				"patchline" : 				{
					"destination" : [ "obj-48", 0 ],
					"disabled" : 0,
					"hidden" : 0,
					"source" : [ "obj-41", 0 ]
				}

			}
, 			{
				"patchline" : 				{
					"destination" : [ "obj-41", 1 ],
					"disabled" : 0,
					"hidden" : 0,
					"source" : [ "obj-42", 0 ]
				}

			}
, 			{
				"patchline" : 				{
					"destination" : [ "obj-41", 3 ],
					"disabled" : 0,
					"hidden" : 0,
					"source" : [ "obj-45", 0 ]
				}

			}
, 			{
				"patchline" : 				{
					"destination" : [ "obj-1", 3 ],
					"disabled" : 0,
					"hidden" : 0,
					"source" : [ "obj-46", 0 ]
				}

			}
, 			{
				"patchline" : 				{
					"destination" : [ "obj-87", 0 ],
					"disabled" : 0,
					"hidden" : 0,
					"source" : [ "obj-47", 0 ]
				}

			}
, 			{
				"patchline" : 				{
					"destination" : [ "obj-23", 0 ],
					"disabled" : 0,
					"hidden" : 0,
					"source" : [ "obj-48", 0 ]
				}

			}
, 			{
				"patchline" : 				{
					"destination" : [ "obj-51", 0 ],
					"disabled" : 0,
					"hidden" : 0,
					"source" : [ "obj-48", 0 ]
				}

			}
, 			{
				"patchline" : 				{
					"destination" : [ "obj-26", 0 ],
					"disabled" : 0,
					"hidden" : 0,
					"midpoints" : [ 295.0, 210.0, 0.0, 210.0, 0.0, 9.0, 15.0, 9.0 ],
					"source" : [ "obj-5", 0 ]
				}

			}
, 			{
				"patchline" : 				{
					"destination" : [ "obj-7", 0 ],
					"disabled" : 0,
					"hidden" : 0,
					"source" : [ "obj-5", 0 ]
				}

			}
, 			{
				"patchline" : 				{
					"destination" : [ "obj-26", 2 ],
					"disabled" : 0,
					"hidden" : 0,
					"source" : [ "obj-51", 0 ]
				}

			}
, 			{
				"patchline" : 				{
					"destination" : [ "obj-51", 0 ],
					"disabled" : 0,
					"hidden" : 0,
					"source" : [ "obj-53", 0 ]
				}

			}
, 			{
				"patchline" : 				{
					"destination" : [ "obj-51", 0 ],
					"disabled" : 0,
					"hidden" : 0,
					"source" : [ "obj-55", 0 ]
				}

			}
, 			{
				"patchline" : 				{
					"destination" : [ "obj-51", 0 ],
					"disabled" : 0,
					"hidden" : 0,
					"source" : [ "obj-57", 0 ]
				}

			}
, 			{
				"patchline" : 				{
					"destination" : [ "obj-53", 0 ],
					"disabled" : 0,
					"hidden" : 0,
					"source" : [ "obj-69", 0 ]
				}

			}
, 			{
				"patchline" : 				{
					"destination" : [ "obj-33", 0 ],
					"disabled" : 0,
					"hidden" : 0,
					"source" : [ "obj-7", 0 ]
				}

			}
, 			{
				"patchline" : 				{
					"destination" : [ "obj-55", 0 ],
					"disabled" : 0,
					"hidden" : 0,
					"source" : [ "obj-71", 0 ]
				}

			}
, 			{
				"patchline" : 				{
					"destination" : [ "obj-76", 0 ],
					"disabled" : 0,
					"hidden" : 0,
					"midpoints" : [ 574.0, 333.0, 546.0, 333.0, 546.0, 165.0, 436.5, 165.0 ],
					"source" : [ "obj-72", 0 ]
				}

			}
, 			{
				"patchline" : 				{
					"destination" : [ "obj-53", 0 ],
					"disabled" : 0,
					"hidden" : 0,
					"source" : [ "obj-76", 0 ]
				}

			}
, 			{
				"patchline" : 				{
					"destination" : [ "obj-55", 0 ],
					"disabled" : 0,
					"hidden" : 0,
					"source" : [ "obj-76", 0 ]
				}

			}
, 			{
				"patchline" : 				{
					"destination" : [ "obj-79", 0 ],
					"disabled" : 0,
					"hidden" : 0,
					"source" : [ "obj-77", 0 ]
				}

			}
, 			{
				"patchline" : 				{
					"destination" : [ "obj-57", 0 ],
					"disabled" : 0,
					"hidden" : 0,
					"source" : [ "obj-79", 0 ]
				}

			}
, 			{
				"patchline" : 				{
					"destination" : [ "obj-36", 0 ],
					"disabled" : 0,
					"hidden" : 0,
					"source" : [ "obj-8", 0 ]
				}

			}
, 			{
				"patchline" : 				{
					"destination" : [ "obj-16", 0 ],
					"disabled" : 0,
					"hidden" : 0,
					"source" : [ "obj-85", 0 ]
				}

			}
, 			{
				"patchline" : 				{
					"destination" : [ "obj-85", 0 ],
					"disabled" : 0,
					"hidden" : 0,
					"source" : [ "obj-87", 0 ]
				}

			}
, 			{
				"patchline" : 				{
					"destination" : [ "obj-35", 4 ],
					"disabled" : 0,
					"hidden" : 0,
					"source" : [ "obj-9", 0 ]
				}

			}
, 			{
				"patchline" : 				{
					"destination" : [ "obj-35", 1 ],
					"disabled" : 0,
					"hidden" : 0,
					"source" : [ "obj-95", 0 ]
				}

			}
, 			{
				"patchline" : 				{
					"destination" : [ "obj-35", 2 ],
					"disabled" : 0,
					"hidden" : 0,
					"source" : [ "obj-98", 0 ]
				}

			}
, 			{
				"patchline" : 				{
					"destination" : [ "obj-35", 3 ],
					"disabled" : 0,
					"hidden" : 0,
					"source" : [ "obj-99", 0 ]
				}

			}
 ],
		"parameters" : 		{
			"obj-1::obj-44" : [ "slider[10]", "slider[1]", 0 ],
			"obj-41::obj-13" : [ "slider[15]", "slider[2]", 0 ],
			"obj-48::obj-37" : [ "slider[17]", "slider", 0 ],
			"obj-33::obj-28" : [ "swatch", "swatch", 0 ],
			"obj-26::obj-1" : [ "umenu[1]", "umenu", 0 ],
			"obj-35::obj-95" : [ "textbutton", "textbutton", 0 ],
			"obj-1::obj-51" : [ "slider[12]", "slider", 0 ],
			"obj-48::obj-88" : [ "textbutton[3]", "textbutton[2]", 0 ],
			"obj-48::obj-53" : [ "umenu[2]", "umenu", 0 ],
			"obj-26::obj-77" : [ "slider[4]", "slider", 0 ],
			"obj-35::obj-106" : [ "slider[7]", "slider", 0 ],
			"obj-23::obj-38" : [ "umenu", "umenu", 0 ],
			"obj-1::obj-48" : [ "pictctrl[2]", "pictctrl[2]", 0 ],
			"obj-41::obj-39" : [ "slider[14]", "slider", 0 ],
			"obj-35::obj-88" : [ "textbutton[2]", "textbutton[2]", 0 ],
			"obj-23::obj-30" : [ "slider", "slider", 0 ],
			"obj-33::obj-27" : [ "swatch[2]", "swatch[1]", 0 ],
			"obj-7::obj-2" : [ "slider[2]", "slider", 0 ],
			"obj-26::obj-41" : [ "slider[6]", "slider[1]", 0 ],
			"obj-35::obj-84" : [ "slider[9]", "slider[2]", 0 ],
			"obj-48::obj-13" : [ "slider[16]", "slider[1]", 0 ],
			"obj-1::obj-20" : [ "pictctrl[1]", "pictctrl[1]", 0 ],
			"obj-1::obj-53" : [ "pictctrl", "pictctrl", 0 ],
			"obj-26::obj-55" : [ "slider[5]", "slider[3]", 0 ],
			"obj-26::obj-66" : [ "slider[3]", "slider[2]", 0 ],
			"obj-35::obj-92" : [ "slider[8]", "slider[1]", 0 ],
			"obj-7::obj-29" : [ "slider[1]", "slider[1]", 0 ],
			"obj-1::obj-55" : [ "slider[11]", "slider[2]", 0 ],
			"obj-35::obj-105" : [ "textbutton[1]", "textbutton[1]", 0 ],
			"obj-41::obj-38" : [ "slider[13]", "slider[1]", 0 ],
			"obj-48::obj-12" : [ "slider[18]", "slider[2]", 0 ],
			"obj-23::obj-136" : [ "swatch[1]", "swatch", 0 ]
		}
,
		"dependency_cache" : [ 			{
				"name" : "vz.viewr.maxpat",
				"bootpath" : "/Applications/Max 6.1/packages/vizzie/patchers",
				"patcherrelativepath" : "../../../../../../Applications/Max 6.1/packages/vizzie/patchers",
				"type" : "JSON",
				"implicit" : 1
			}
, 			{
				"name" : "viewrnamer.js",
				"bootpath" : "/Applications/Max 6.1/packages/vizzie/patchers",
				"patcherrelativepath" : "../../../../../../Applications/Max 6.1/packages/vizzie/patchers",
				"type" : "TEXT",
				"implicit" : 1
			}
, 			{
				"name" : "data-handler.maxpat",
				"bootpath" : "/Applications/Max 6.1/packages/vizzie/patchers",
				"patcherrelativepath" : "../../../../../../Applications/Max 6.1/packages/vizzie/patchers",
				"type" : "JSON",
				"implicit" : 1
			}
, 			{
				"name" : "pvr-data-button.png",
				"bootpath" : "/Applications/Max 6.1/packages/vizzie/patchers",
				"patcherrelativepath" : "../../../../../../Applications/Max 6.1/packages/vizzie/patchers",
				"type" : "PNG ",
				"implicit" : 1
			}
, 			{
				"name" : "vz.scribblr.maxpat",
				"bootpath" : "/Applications/Max 6.1/packages/vizzie/patchers",
				"patcherrelativepath" : "../../../../../../Applications/Max 6.1/packages/vizzie/patchers",
				"type" : "JSON",
				"implicit" : 1
			}
, 			{
				"name" : "gen-data-button.png",
				"bootpath" : "/Applications/Max 6.1/packages/vizzie/patchers",
				"patcherrelativepath" : "../../../../../../Applications/Max 6.1/packages/vizzie/patchers",
				"type" : "PNG ",
				"implicit" : 1
			}
, 			{
				"name" : "video-handler.maxpat",
				"bootpath" : "/Applications/Max 6.1/packages/vizzie/patchers",
				"patcherrelativepath" : "../../../../../../Applications/Max 6.1/packages/vizzie/patchers",
				"type" : "JSON",
				"implicit" : 1
			}
, 			{
				"name" : "scribblr-presets.json",
				"bootpath" : "/Applications/Max 6.1/packages/vizzie/patchers",
				"patcherrelativepath" : "../../../../../../Applications/Max 6.1/packages/vizzie/patchers",
				"type" : "JSON",
				"implicit" : 1
			}
, 			{
				"name" : "vz.pixl8r.maxpat",
				"bootpath" : "/Applications/Max 6.1/packages/vizzie/patchers",
				"patcherrelativepath" : "../../../../../../Applications/Max 6.1/packages/vizzie/patchers",
				"type" : "JSON",
				"implicit" : 1
			}
, 			{
				"name" : "efx-data-button.png",
				"bootpath" : "/Applications/Max 6.1/packages/vizzie/patchers",
				"patcherrelativepath" : "../../../../../../Applications/Max 6.1/packages/vizzie/patchers",
				"type" : "PNG ",
				"implicit" : 1
			}
, 			{
				"name" : "pixl8r-presets.json",
				"bootpath" : "/Applications/Max 6.1/packages/vizzie/patchers",
				"patcherrelativepath" : "../../../../../../Applications/Max 6.1/packages/vizzie/patchers",
				"type" : "JSON",
				"implicit" : 1
			}
, 			{
				"name" : "vz.2toner.maxpat",
				"bootpath" : "/Applications/Max 6.1/packages/vizzie/patchers",
				"patcherrelativepath" : "../../../../../../Applications/Max 6.1/packages/vizzie/patchers",
				"type" : "JSON",
				"implicit" : 1
			}
, 			{
				"name" : "2toner-presets.json",
				"bootpath" : "/Applications/Max 6.1/packages/vizzie/patchers",
				"patcherrelativepath" : "../../../../../../Applications/Max 6.1/packages/vizzie/patchers",
				"type" : "JSON",
				"implicit" : 1
			}
, 			{
				"name" : "vz.4mixr.maxpat",
				"bootpath" : "/Applications/Max 6.1/packages/vizzie/patchers",
				"patcherrelativepath" : "../../../../../../Applications/Max 6.1/packages/vizzie/patchers",
				"type" : "JSON",
				"implicit" : 1
			}
, 			{
				"name" : "ctl-data-button.png",
				"bootpath" : "/Applications/Max 6.1/packages/vizzie/patchers",
				"patcherrelativepath" : "../../../../../../Applications/Max 6.1/packages/vizzie/patchers",
				"type" : "PNG ",
				"implicit" : 1
			}
, 			{
				"name" : "mixdata-handler.maxpat",
				"bootpath" : "/Applications/Max 6.1/packages/vizzie/patchers",
				"patcherrelativepath" : "../../../../../../Applications/Max 6.1/packages/vizzie/patchers",
				"type" : "JSON",
				"implicit" : 1
			}
, 			{
				"name" : "videothru-handler.maxpat",
				"bootpath" : "/Applications/Max 6.1/packages/vizzie/patchers",
				"patcherrelativepath" : "../../../../../../Applications/Max 6.1/packages/vizzie/patchers",
				"type" : "JSON",
				"implicit" : 1
			}
, 			{
				"name" : "mixvid-handler-b.maxpat",
				"bootpath" : "/Applications/Max 6.1/packages/vizzie/patchers",
				"patcherrelativepath" : "../../../../../../Applications/Max 6.1/packages/vizzie/patchers",
				"type" : "JSON",
				"implicit" : 1
			}
, 			{
				"name" : "4mixr-presets.json",
				"bootpath" : "/Applications/Max 6.1/packages/vizzie/patchers",
				"patcherrelativepath" : "../../../../../../Applications/Max 6.1/packages/vizzie/patchers",
				"type" : "JSON",
				"implicit" : 1
			}
, 			{
				"name" : "vz.brcosr.maxpat",
				"bootpath" : "/Applications/Max 6.1/packages/vizzie/patchers",
				"patcherrelativepath" : "../../../../../../Applications/Max 6.1/packages/vizzie/patchers",
				"type" : "JSON",
				"implicit" : 1
			}
, 			{
				"name" : "brcosr-presets.json",
				"bootpath" : "/Applications/Max 6.1/packages/vizzie/patchers",
				"patcherrelativepath" : "../../../../../../Applications/Max 6.1/packages/vizzie/patchers",
				"type" : "JSON",
				"implicit" : 1
			}
, 			{
				"name" : "efx-daisy-button.png",
				"bootpath" : "/Applications/Max 6.1/packages/vizzie/patchers",
				"patcherrelativepath" : "../../../../../../Applications/Max 6.1/packages/vizzie/patchers",
				"type" : "PNG ",
				"implicit" : 1
			}
, 			{
				"name" : "vz.delayr.maxpat",
				"bootpath" : "/Applications/Max 6.1/packages/vizzie/patchers",
				"patcherrelativepath" : "../../../../../../Applications/Max 6.1/packages/vizzie/patchers",
				"type" : "JSON",
				"implicit" : 1
			}
, 			{
				"name" : "delayr-presets.json",
				"bootpath" : "/Applications/Max 6.1/packages/vizzie/patchers",
				"patcherrelativepath" : "../../../../../../Applications/Max 6.1/packages/vizzie/patchers",
				"type" : "JSON",
				"implicit" : 1
			}
, 			{
				"name" : "vz.feedr.maxpat",
				"bootpath" : "/Applications/Max 6.1/packages/vizzie/patchers",
				"patcherrelativepath" : "../../../../../../Applications/Max 6.1/packages/vizzie/patchers",
				"type" : "JSON",
				"implicit" : 1
			}
, 			{
				"name" : "feedr-presets.json",
				"bootpath" : "/Applications/Max 6.1/packages/vizzie/patchers",
				"patcherrelativepath" : "../../../../../../Applications/Max 6.1/packages/vizzie/patchers",
				"type" : "JSON",
				"implicit" : 1
			}
, 			{
				"name" : "vz.zamplr.maxpat",
				"bootpath" : "/Applications/Max 6.1/packages/vizzie/patchers",
				"patcherrelativepath" : "../../../../../../Applications/Max 6.1/packages/vizzie/patchers",
				"type" : "JSON",
				"implicit" : 1
			}
, 			{
				"name" : "zamplr-presets.json",
				"bootpath" : "/Applications/Max 6.1/packages/vizzie/patchers",
				"patcherrelativepath" : "../../../../../../Applications/Max 6.1/packages/vizzie/patchers",
				"type" : "JSON",
				"implicit" : 1
			}
 ]
	}

}
